<?xml version="1.0" encoding="UTF-8"?> <!-- Generator: Adobe Illustrator 24.3.0, SVG Export Plug-In . SVG Version: 6.00 Build 0) --> <svg xmlns="http://www.w3.org/2000/svg" xmlns:xlink="http://www.w3.org/1999/xlink" id="Layer_1" x="0px" y="0px" viewBox="0 0 1920 860" style="enable-background:new 0 0 1920 860;" xml:space="preserve"> <style type="text/css"> .st0{fill:url(#SVGID_1_);} </style> <linearGradient id="SVGID_1_" gradientUnits="userSpaceOnUse" x1="72.5332" y1="417.0295" x2="1812.0001" y2="417.0295"> <stop offset="0" style="stop-color:#9EE2FF"></stop> <stop offset="1" style="stop-color:#75F6C3"></stop> </linearGradient> <path class="st0" d="M1800.74,409.36c-3.74,0-7.46-1.41-10.85-4.23c-6.01-5.01-13.18-5.01-19.19,0c-6.71,5.59-15.04,5.59-21.75,0 c-6.01-5.01-13.18-5.01-19.19,0c-6.71,5.59-15.04,5.59-21.75,0c-0.42-0.35-0.48-0.98-0.13-1.41c0.35-0.42,0.98-0.48,1.41-0.13 c6.01,5.01,13.18,5.01,19.19,0c6.71-5.59,15.04-5.59,21.75,0c6.01,5.01,13.18,5,19.19,0c6.71-5.59,15.04-5.59,21.75,0 c5.97,4.98,13.15,4.98,19.2,0c0.42-0.35,1.06-0.29,1.41,0.14c0.35,0.43,0.29,1.06-0.14,1.41 C1808.21,407.95,1804.47,409.36,1800.74,409.36z M1621.17,781.63c0.05-0.54-0.36-1.02-0.91-1.07c-5.46-0.46-9.02-4.03-9.54-9.54 c-0.53-6.39-4.88-10.74-11.35-11.35c-5.46-0.46-9.02-4.03-9.54-9.54c-0.53-6.39-4.88-10.75-11.35-11.35 c-5.46-0.46-9.02-4.03-9.54-9.55c-0.05-0.55-0.55-0.95-1.08-0.89c-0.54,0.05-0.95,0.53-0.89,1.08c0.61,6.46,4.96,10.81,11.34,11.34 c5.53,0.52,9.1,4.09,9.55,9.55c0.61,6.46,4.96,10.81,11.34,11.34c5.53,0.52,9.1,4.09,9.55,9.55c0.61,6.46,4.96,10.81,11.35,11.34 c0.03,0,0.06,0,0.08,0C1620.69,782.54,1621.13,782.15,1621.17,781.63z M1078.37,718.77c0.42-0.35,0.48-0.97,0.13-1.4 c-0.35-0.42-0.97-0.48-1.4-0.13c-4.25,3.53-9.31,3.53-13.56,0c-4.96-4.13-11.13-4.12-16.09,0c-4.25,3.53-9.31,3.53-13.56,0 c-4.96-4.12-11.13-4.12-16.09,0c-4.25,3.53-9.31,3.53-13.56,0c-0.42-0.35-1.05-0.29-1.4,0.13c-0.35,0.42-0.29,1.04,0.13,1.4 c4.96,4.12,11.13,4.12,16.09,0c4.25-3.53,9.32-3.53,13.56,0c4.96,4.12,11.13,4.12,16.09,0c4.24-3.53,9.31-3.53,13.56,0 c2.48,2.06,5.26,3.09,8.05,3.09C1073.1,721.86,1075.88,720.83,1078.37,718.77z M712.4,342.79c0.39-0.39,0.39-1.02,0-1.4 l-21.53-21.46c-0.39-0.39-1.02-0.38-1.4,0c-0.39,0.39-0.39,1.02,0,1.4L711,342.8c0.19,0.19,0.45,0.29,0.7,0.29 C711.95,343.08,712.21,342.99,712.4,342.79z M1255.77,186.29c0.39-0.39,0.39-1.01,0-1.4l-14.54-14.54c-0.39-0.39-1.01-0.39-1.4,0 c-0.39,0.39-0.39,1.01,0,1.4l14.54,14.54c0.19,0.19,0.45,0.29,0.7,0.29S1255.57,186.48,1255.77,186.29z M897.5,132.99 c0.39-0.39,0.39-1.01,0-1.4l-14.54-14.54c-0.39-0.39-1.01-0.39-1.4,0c-0.39,0.39-0.39,1.01,0,1.4l14.54,14.54 c0.19,0.19,0.45,0.29,0.7,0.29S897.31,133.18,897.5,132.99z M1317.48,232.04c0-5.77-4.69-10.46-10.46-10.46s-10.46,4.69-10.46,10.46 s4.69,10.46,10.46,10.46S1317.48,237.8,1317.48,232.04z M1315.48,232.04c0,4.66-3.79,8.46-8.46,8.46c-4.67,0-8.46-3.79-8.46-8.46 c0-4.67,3.79-8.46,8.46-8.46C1311.69,223.58,1315.48,227.37,1315.48,232.04z M776.21,91c1.14-1.1,1.78-2.58,1.8-4.16 c0.01-1.58-0.59-3.07-1.7-4.17c-1.1-1.14-2.58-1.78-4.16-1.8c-1.59,0.01-3.07,0.59-4.17,1.7c-1.14,1.1-1.78,2.58-1.8,4.16 c-0.01,1.58,0.59,3.07,1.71,4.19l0,0c1.11,1.11,2.59,1.74,4.15,1.76c0.03,0,0.06,0,0.09,0C773.68,92.68,775.13,92.08,776.21,91z M772.13,82.87c1.04,0.01,2.01,0.43,2.75,1.2c0.74,0.74,1.14,1.71,1.13,2.75c-0.01,1.04-0.43,2.01-1.2,2.75 c-0.72,0.72-1.7,1.12-2.74,1.1c-1.04-0.01-2.02-0.43-2.77-1.17l0,0c-0.74-0.74-1.14-1.71-1.13-2.75c0.01-1.04,0.43-2.01,1.2-2.75 c0.73-0.73,1.69-1.13,2.72-1.13C772.1,82.87,772.12,82.87,772.13,82.87z M851.23,693.66c0-3.25-2.65-5.9-5.9-5.9s-5.9,2.65-5.9,5.9 s2.65,5.9,5.9,5.9S851.23,696.91,851.23,693.66z M849.18,693.66c0,2.12-1.73,3.85-3.85,3.85s-3.85-1.72-3.85-3.85 s1.73-3.85,3.85-3.85S849.18,691.53,849.18,693.66z M819.3,241.21c0-3.24-2.63-5.87-5.87-5.87s-5.87,2.63-5.87,5.87 s2.63,5.87,5.87,5.87S819.3,244.45,819.3,241.21z M817.3,241.21c0,2.13-1.74,3.87-3.87,3.87s-3.87-1.74-3.87-3.87 s1.74-3.87,3.87-3.87S817.3,239.08,817.3,241.21z M1746.3,623.21c0,2.13-1.74,3.87-3.87,3.87s-3.87-1.74-3.87-3.87 s1.74-3.87,3.87-3.87S1746.3,621.08,1746.3,623.21z M1271.95,617.48c0-3.24-2.63-5.87-5.87-5.87s-5.87,2.63-5.87,5.87 s2.63,5.87,5.87,5.87S1271.95,620.72,1271.95,617.48z M1269.95,617.48c0,2.13-1.74,3.87-3.87,3.87s-3.87-1.74-3.87-3.87 s1.74-3.87,3.87-3.87S1269.95,615.35,1269.95,617.48z M1638.68,104.33l8.12-8.12c0.6-0.6,0.6-1.52,0-2.12l-8.12-8.12 c-0.6-0.6-1.51-0.6-2.12,0l-8.12,8.12c-0.6,0.6-0.6,1.51,0,2.12l8.12,8.12c0.3,0.3,0.68,0.45,1.06,0.45 C1638,104.78,1638.38,104.63,1638.68,104.33z M1637.62,87.74l7.41,7.41l-7.41,7.41l-7.41-7.41L1637.62,87.74z M1050.41,96l8.12-8.12 c0.29-0.29,0.45-0.66,0.45-1.05c0-0.39-0.16-0.77-0.45-1.05l-8.12-8.12c-0.6-0.6-1.51-0.6-2.11,0l-8.12,8.12 c-0.29,0.29-0.45,0.66-0.45,1.05c0,0.39,0.16,0.76,0.45,1.05l8.12,8.12c0.29,0.29,0.66,0.45,1.05,0.45 C1049.74,96.44,1050.12,96.28,1050.41,96z M1049.7,94.59L1049.7,94.59C1049.7,94.59,1049.7,94.59,1049.7,94.59z M1049.35,79.4 l7.42,7.42l-7.42,7.42l-7.42-7.42L1049.35,79.4z M1532.3,297.04l-49.79-49.85l-0.71,0.71l49.79,49.85L1532.3,297.04z M1525.28,304.06l-49.79-49.85l-0.71,0.71l49.79,49.85L1525.28,304.06z M1482.51,254.92L1482.51,254.92c1.03-1.03,1.6-2.41,1.6-3.87 c0-1.46-0.57-2.83-1.6-3.87c-2.13-2.13-5.6-2.13-7.73,0c-2.13,2.13-2.13,5.6,0,7.73c1.07,1.07,2.47,1.6,3.87,1.6 C1480.05,256.52,1481.45,255.98,1482.51,254.92z M1481.81,247.89c0.84,0.84,1.31,1.96,1.31,3.16c0,1.19-0.46,2.32-1.31,3.16l0,0 c-1.74,1.74-4.58,1.74-6.32,0c-1.74-1.74-1.74-4.58,0-6.32c0.87-0.87,2.02-1.31,3.16-1.31 C1479.79,246.59,1480.94,247.02,1481.81,247.89z M1532.3,304.77c2.13-2.13,2.13-5.6,0-7.73l-0.71,0.71c1.74,1.74,1.74,4.58,0,6.32 c-1.74,1.74-4.58,1.74-6.32,0l-0.71,0.71c1.07,1.07,2.47,1.6,3.87,1.6C1529.84,306.37,1531.24,305.83,1532.3,304.77z M735.28,582.43 c0-1.12-0.91-2.04-2.04-2.04s-2.04,0.91-2.04,2.04s0.91,2.04,2.04,2.04S735.28,583.56,735.28,582.43z M734.28,582.43 c0,0.57-0.47,1.04-1.04,1.04s-1.04-0.47-1.04-1.04c0-0.57,0.47-1.04,1.04-1.04S734.28,581.86,734.28,582.43z M734.75,593.87 c0.37-0.39,0.56-0.9,0.53-1.38c0-1.1-0.93-2.04-2.04-2.04c-1.12,0-2.04,0.91-2.04,2.04s0.91,2.04,2.04,2.04 C733.81,594.53,734.36,594.29,734.75,593.87z M734.28,592.52c0.02,0.24-0.08,0.48-0.26,0.67c-0.2,0.22-0.49,0.34-0.78,0.34 c-0.57,0-1.04-0.47-1.04-1.04c0-0.57,0.47-1.04,1.04-1.04C733.78,591.45,734.28,591.94,734.28,592.52z M735.28,602.44 c0-1.12-0.91-2.04-2.04-2.04s-2.04,0.91-2.04,2.04s0.91,2.04,2.04,2.04S735.28,603.56,735.28,602.44z M734.28,602.44 c0,0.57-0.47,1.04-1.04,1.04s-1.04-0.47-1.04-1.04c0-0.57,0.47-1.04,1.04-1.04S734.28,601.86,734.28,602.44z M735.28,612.44 c0-1.12-0.91-2.04-2.04-2.04s-2.04,0.92-2.04,2.04s0.91,2.04,2.04,2.04S735.28,613.56,735.28,612.44z M734.28,612.44 c0,0.57-0.47,1.04-1.04,1.04s-1.04-0.47-1.04-1.04c0-0.57,0.47-1.04,1.04-1.04S734.28,611.86,734.28,612.44z M735.28,622.44 c0-1.12-0.91-2.04-2.04-2.04s-2.04,0.91-2.04,2.04s0.91,2.04,2.04,2.04S735.28,623.56,735.28,622.44z M734.28,622.44 c0,0.57-0.47,1.04-1.04,1.04s-1.04-0.47-1.04-1.04c0-0.57,0.47-1.04,1.04-1.04S734.28,621.86,734.28,622.44z M735.28,632.44 c0-1.12-0.91-2.04-2.04-2.04s-2.04,0.92-2.04,2.04s0.91,2.04,2.04,2.04S735.28,633.56,735.28,632.44z M734.28,632.44 c0,0.57-0.47,1.04-1.04,1.04s-1.04-0.47-1.04-1.04c0-0.57,0.47-1.04,1.04-1.04S734.28,631.86,734.28,632.44z M734.75,643.87 c0.37-0.39,0.56-0.9,0.52-1.38c0-1.11-0.93-2.04-2.04-2.04c-1.12,0-2.04,0.92-2.04,2.04s0.91,2.04,2.04,2.04 C733.81,644.53,734.36,644.29,734.75,643.87z M734.28,642.52c0.02,0.24-0.08,0.48-0.25,0.67c-0.2,0.22-0.49,0.34-0.78,0.34 c-0.57,0-1.04-0.47-1.04-1.04c0-0.57,0.47-1.04,1.04-1.04C733.78,641.45,734.28,641.95,734.28,642.52z M735.28,652.44 c0-1.12-0.91-2.04-2.04-2.04s-2.04,0.92-2.04,2.04s0.91,2.04,2.04,2.04S735.28,653.56,735.28,652.44z M734.28,652.44 c0,0.57-0.47,1.04-1.04,1.04s-1.04-0.47-1.04-1.04c0-0.57,0.47-1.04,1.04-1.04S734.28,651.87,734.28,652.44z M744.71,582.43 c0-1.12-0.91-2.04-2.04-2.04s-2.04,0.91-2.04,2.04s0.91,2.04,2.04,2.04S744.71,583.56,744.71,582.43z M743.71,582.43 c0,0.57-0.47,1.04-1.04,1.04s-1.04-0.47-1.04-1.04c0-0.57,0.47-1.04,1.04-1.04S743.71,581.86,743.71,582.43z M744.19,593.87 c0.37-0.39,0.56-0.9,0.53-1.38c0-1.1-0.93-2.04-2.04-2.04c-1.12,0-2.04,0.91-2.04,2.04s0.91,2.04,2.04,2.04 C743.24,594.53,743.8,594.29,744.19,593.87z M743.71,592.52c0.02,0.24-0.08,0.48-0.26,0.67c-0.2,0.22-0.49,0.34-0.78,0.34 c-0.57,0-1.04-0.47-1.04-1.04c0-0.57,0.47-1.04,1.04-1.04C743.22,591.45,743.71,591.94,743.71,592.52z M744.71,602.44 c0-1.12-0.91-2.04-2.04-2.04s-2.04,0.91-2.04,2.04s0.91,2.04,2.04,2.04S744.71,603.56,744.71,602.44z M743.71,602.44 c0,0.57-0.47,1.04-1.04,1.04s-1.04-0.47-1.04-1.04c0-0.57,0.47-1.04,1.04-1.04S743.71,601.86,743.71,602.44z M744.71,612.44 c0-1.12-0.91-2.04-2.04-2.04s-2.04,0.92-2.04,2.04s0.91,2.04,2.04,2.04S744.71,613.56,744.71,612.44z M743.71,612.44 c0,0.57-0.47,1.04-1.04,1.04s-1.04-0.47-1.04-1.04c0-0.57,0.47-1.04,1.04-1.04S743.71,611.86,743.71,612.44z M744.71,622.44 c0-1.12-0.91-2.04-2.04-2.04s-2.04,0.91-2.04,2.04s0.91,2.04,2.04,2.04S744.71,623.56,744.71,622.44z M743.71,622.44 c0,0.57-0.47,1.04-1.04,1.04s-1.04-0.47-1.04-1.04c0-0.57,0.47-1.04,1.04-1.04S743.71,621.86,743.71,622.44z M744.71,632.44 c0-1.12-0.91-2.04-2.04-2.04s-2.04,0.92-2.04,2.04s0.91,2.04,2.04,2.04S744.71,633.56,744.71,632.44z M743.71,632.44 c0,0.57-0.47,1.04-1.04,1.04s-1.04-0.47-1.04-1.04c0-0.57,0.47-1.04,1.04-1.04S743.71,631.86,743.71,632.44z M744.19,643.87 c0.37-0.39,0.56-0.9,0.52-1.38c0-1.11-0.93-2.04-2.04-2.04c-1.12,0-2.04,0.92-2.04,2.04s0.91,2.04,2.04,2.04 C743.25,644.53,743.8,644.29,744.19,643.87z M743.71,642.52c0.02,0.24-0.08,0.48-0.25,0.67c-0.2,0.22-0.49,0.34-0.78,0.34 c-0.57,0-1.04-0.47-1.04-1.04c0-0.57,0.47-1.04,1.04-1.04C743.22,641.45,743.71,641.95,743.71,642.52z M754.15,582.43 c0-1.12-0.91-2.04-2.04-2.04s-2.04,0.91-2.04,2.04s0.91,2.04,2.04,2.04S754.15,583.56,754.15,582.43z M753.15,582.43 c0,0.57-0.47,1.04-1.04,1.04s-1.04-0.47-1.04-1.04c0-0.57,0.47-1.04,1.04-1.04S753.15,581.86,753.15,582.43z M753.62,593.87 c0.37-0.39,0.56-0.9,0.53-1.38c0-1.1-0.93-2.04-2.04-2.04c-1.12,0-2.04,0.91-2.04,2.04s0.91,2.04,2.04,2.04 C752.68,594.53,753.23,594.29,753.62,593.87z M753.15,592.52c0.02,0.24-0.08,0.48-0.26,0.67c-0.2,0.22-0.49,0.34-0.78,0.34 c-0.57,0-1.04-0.47-1.04-1.04c0-0.57,0.47-1.04,1.04-1.04C752.65,591.45,753.15,591.94,753.15,592.52z M754.15,602.44 c0-1.12-0.91-2.04-2.04-2.04s-2.04,0.91-2.04,2.04s0.91,2.04,2.04,2.04S754.15,603.56,754.15,602.44z M753.15,602.44 c0,0.57-0.47,1.04-1.04,1.04s-1.04-0.47-1.04-1.04c0-0.57,0.47-1.04,1.04-1.04S753.15,601.86,753.15,602.44z M754.15,612.44 c0-1.12-0.91-2.04-2.04-2.04s-2.04,0.92-2.04,2.04s0.91,2.04,2.04,2.04S754.15,613.56,754.15,612.44z M753.15,612.44 c0,0.57-0.47,1.04-1.04,1.04s-1.04-0.47-1.04-1.04c0-0.57,0.47-1.04,1.04-1.04S753.15,611.86,753.15,612.44z M754.15,622.44 c0-1.12-0.91-2.04-2.04-2.04s-2.04,0.91-2.04,2.04s0.91,2.04,2.04,2.04S754.15,623.56,754.15,622.44z M753.15,622.44 c0,0.57-0.47,1.04-1.04,1.04s-1.04-0.47-1.04-1.04c0-0.57,0.47-1.04,1.04-1.04S753.15,621.86,753.15,622.44z M754.15,632.44 c0-1.12-0.91-2.04-2.04-2.04s-2.04,0.92-2.04,2.04s0.91,2.04,2.04,2.04S754.15,633.56,754.15,632.44z M753.15,632.44 c0,0.57-0.47,1.04-1.04,1.04s-1.04-0.47-1.04-1.04c0-0.57,0.47-1.04,1.04-1.04S753.15,631.86,753.15,632.44z M763.58,582.43 c0-1.12-0.91-2.04-2.04-2.04s-2.04,0.91-2.04,2.04s0.91,2.04,2.04,2.04S763.58,583.56,763.58,582.43z M762.58,582.43 c0,0.57-0.47,1.04-1.04,1.04s-1.04-0.47-1.04-1.04c0-0.57,0.47-1.04,1.04-1.04S762.58,581.86,762.58,582.43z M763.06,593.87 c0.37-0.39,0.56-0.9,0.53-1.38c0-1.12-0.91-2.04-2.04-2.04s-2.04,0.91-2.04,2.04s0.91,2.04,2.04,2.04 C762.12,594.53,762.67,594.29,763.06,593.87z M762.59,592.52c0.02,0.24-0.08,0.48-0.26,0.67c-0.2,0.22-0.49,0.34-0.78,0.34 c-0.57,0-1.04-0.47-1.04-1.04c0-0.57,0.47-1.04,1.04-1.04S762.58,591.91,762.59,592.52z M763.58,602.44c0-1.12-0.91-2.04-2.04-2.04 s-2.04,0.91-2.04,2.04s0.91,2.04,2.04,2.04S763.58,603.56,763.58,602.44z M762.58,602.44c0,0.57-0.47,1.04-1.04,1.04 s-1.04-0.47-1.04-1.04c0-0.57,0.47-1.04,1.04-1.04S762.58,601.86,762.58,602.44z M763.58,612.44c0-1.12-0.91-2.04-2.04-2.04 s-2.04,0.92-2.04,2.04s0.91,2.04,2.04,2.04S763.58,613.56,763.58,612.44z M762.58,612.44c0,0.57-0.47,1.04-1.04,1.04 s-1.04-0.47-1.04-1.04c0-0.57,0.47-1.04,1.04-1.04S762.58,611.86,762.58,612.44z M763.58,622.44c0-1.12-0.91-2.04-2.04-2.04 s-2.04,0.91-2.04,2.04s0.91,2.04,2.04,2.04S763.58,623.56,763.58,622.44z M762.58,622.44c0,0.57-0.47,1.04-1.04,1.04 s-1.04-0.47-1.04-1.04c0-0.57,0.47-1.04,1.04-1.04S762.58,621.86,762.58,622.44z M773.02,582.43c0-1.12-0.91-2.04-2.04-2.04 s-2.04,0.91-2.04,2.04s0.91,2.04,2.04,2.04S773.02,583.56,773.02,582.43z M772.02,582.43c0,0.57-0.47,1.04-1.04,1.04 s-1.04-0.47-1.04-1.04c0-0.57,0.47-1.04,1.04-1.04S772.02,581.86,772.02,582.43z M772.5,593.87c0.37-0.39,0.56-0.9,0.53-1.38 c0-1.12-0.91-2.04-2.04-2.04s-2.04,0.91-2.04,2.04s0.91,2.04,2.04,2.04C771.55,594.53,772.1,594.29,772.5,593.87z M772.02,592.52 c0.02,0.24-0.08,0.48-0.26,0.67c-0.2,0.22-0.49,0.34-0.78,0.34c-0.57,0-1.04-0.47-1.04-1.04c0-0.57,0.47-1.04,1.04-1.04 S772.02,591.91,772.02,592.52z M773.02,602.44c0-1.12-0.91-2.04-2.04-2.04s-2.04,0.91-2.04,2.04s0.91,2.04,2.04,2.04 S773.02,603.56,773.02,602.44z M772.02,602.44c0,0.57-0.47,1.04-1.04,1.04s-1.04-0.47-1.04-1.04c0-0.57,0.47-1.04,1.04-1.04 S772.02,601.86,772.02,602.44z M773.02,612.44c0-1.12-0.91-2.04-2.04-2.04s-2.04,0.92-2.04,2.04s0.91,2.04,2.04,2.04 S773.02,613.56,773.02,612.44z M772.02,612.44c0,0.57-0.47,1.04-1.04,1.04s-1.04-0.47-1.04-1.04c0-0.57,0.47-1.04,1.04-1.04 S772.02,611.86,772.02,612.44z M782.46,582.49c0-1.12-0.91-2.04-2.04-2.04c-1.1,0-2.04,0.93-2.04,2.04c0,1.12,0.91,2.04,2.04,2.04 S782.46,583.61,782.46,582.49z M781.46,582.49c0,0.57-0.47,1.04-1.04,1.04s-1.04-0.47-1.04-1.04c0-0.54,0.5-1.04,1.04-1.04 C780.99,581.45,781.46,581.91,781.46,582.49z M781.93,593.87c0.37-0.39,0.56-0.9,0.53-1.38c0-1.12-0.91-2.04-2.04-2.04 s-2.04,0.91-2.04,2.04s0.91,2.04,2.04,2.04C780.99,594.53,781.54,594.29,781.93,593.87z M781.46,592.52 c0.02,0.24-0.08,0.48-0.26,0.67c-0.2,0.22-0.49,0.34-0.78,0.34c-0.57,0-1.04-0.47-1.04-1.04c0-0.57,0.47-1.04,1.04-1.04 S781.46,591.91,781.46,592.52z M781.93,603.87c0.37-0.39,0.56-0.9,0.52-1.38c0-1.12-0.91-2.04-2.04-2.04s-2.04,0.92-2.04,2.04 s0.91,2.04,2.04,2.04C780.99,604.53,781.54,604.29,781.93,603.87z M781.46,602.52c0.02,0.24-0.08,0.48-0.25,0.67 c-0.2,0.22-0.49,0.34-0.78,0.34c-0.57,0-1.04-0.47-1.04-1.04c0-0.57,0.47-1.04,1.04-1.04S781.46,601.91,781.46,602.52z M791.95,582.49c0-1.12-0.91-2.04-2.04-2.04c-1.1,0-2.04,0.93-2.04,2.04c0,1.12,0.91,2.04,2.04,2.04 C791.01,584.52,791.95,583.59,791.95,582.49z M790.95,582.49c0,0.54-0.5,1.04-1.04,1.04c-0.57,0-1.04-0.47-1.04-1.04 c0-0.54,0.5-1.04,1.04-1.04C790.48,581.45,790.95,581.91,790.95,582.49z M791.95,592.49c0-1.12-0.91-2.04-2.04-2.04 s-2.04,0.91-2.04,2.04s0.91,2.04,2.04,2.04C791.01,594.53,791.95,593.59,791.95,592.49z M790.95,592.49c0,0.54-0.5,1.04-1.04,1.04 c-0.57,0-1.04-0.47-1.04-1.04c0-0.57,0.47-1.04,1.04-1.04S790.95,591.91,790.95,592.49z M801.38,582.49c0-1.12-0.91-2.04-2.04-2.04 c-1.1,0-2.04,0.93-2.04,2.04c0,1.12,0.91,2.04,2.04,2.04C800.45,584.52,801.38,583.59,801.38,582.49z M800.38,582.49 c0,0.54-0.5,1.04-1.04,1.04c-0.57,0-1.04-0.47-1.04-1.04c0-0.54,0.5-1.04,1.04-1.04C799.92,581.45,800.38,581.91,800.38,582.49z M1524.92,481.13l9.27-5.33l-9.27-5.36V481.13z M1538.32,481.13l9.24-5.33l-9.24-5.36V481.13z M1551.68,481.13l9.24-5.33l-9.24-5.36 V481.13z M1565.05,481.13l9.27-5.33l-9.27-5.36V481.13z M1578.44,481.13l9.24-5.33l-9.24-5.36V481.13z M1715.35,255.92 c0.19-0.2,0.19-0.51,0-0.71l-6.35-6.28c-0.2-0.19-0.51-0.19-0.71,0c-0.19,0.2-0.19,0.51,0,0.71l6.35,6.28 c0.1,0.1,0.22,0.14,0.35,0.14C1715.12,256.07,1715.25,256.02,1715.35,255.92z M1739.63,269.97c0.2-0.2,0.2-0.51,0-0.71l-24.14-24.14 c-0.2-0.2-0.51-0.2-0.71,0s-0.2,0.51,0,0.71l24.14,24.14c0.1,0.1,0.23,0.15,0.35,0.15S1739.53,270.07,1739.63,269.97z M1763.21,283.24c0.2-0.2,0.2-0.51,0-0.71l-41.16-41.16c-0.2-0.2-0.51-0.2-0.71,0s-0.2,0.51,0,0.71l41.16,41.16 c0.1,0.1,0.23,0.15,0.35,0.15S1763.11,283.34,1763.21,283.24z M1763.21,273.01c0.2-0.2,0.2-0.51,0-0.71l-34.66-34.66 c-0.2-0.2-0.51-0.2-0.71,0s-0.2,0.51,0,0.71l34.66,34.66c0.1,0.1,0.23,0.15,0.35,0.15S1763.11,273.1,1763.21,273.01z M1763.21,262.7 c0.2-0.2,0.2-0.51,0-0.71l-28.17-28.1c-0.2-0.19-0.51-0.2-0.71,0c-0.2,0.2-0.2,0.51,0,0.71l28.17,28.1c0.1,0.1,0.23,0.15,0.35,0.15 S1763.11,262.8,1763.21,262.7z M1763.21,252.46c0.2-0.2,0.2-0.51,0-0.71l-21.67-21.67c-0.2-0.2-0.51-0.2-0.71,0s-0.2,0.51,0,0.71 l21.67,21.67c0.1,0.1,0.23,0.15,0.35,0.15S1763.11,252.56,1763.21,252.46z M1763.21,242.16c0.2-0.2,0.2-0.51,0-0.71l-15.11-15.11 c-0.2-0.2-0.51-0.2-0.71,0s-0.2,0.51,0,0.71l15.11,15.11c0.1,0.1,0.23,0.15,0.35,0.15S1763.11,242.25,1763.21,242.16z M1763.21,231.92c0.2-0.2,0.2-0.51,0-0.71l-8.61-8.61c-0.2-0.2-0.51-0.2-0.71,0s-0.2,0.51,0,0.71l8.61,8.61 c0.1,0.1,0.23,0.15,0.35,0.15S1763.11,232.02,1763.21,231.92z M1763.21,221.61c0.19-0.2,0.19-0.52-0.01-0.71l-2.12-2.05 c-0.2-0.19-0.52-0.19-0.71,0.01c-0.19,0.2-0.19,0.52,0.01,0.71l2.12,2.05c0.1,0.09,0.22,0.14,0.35,0.14 C1762.99,221.76,1763.12,221.71,1763.21,221.61z M454.17,747.63c0.05-0.54-0.36-1.02-0.9-1.07c-5.46-0.46-9.02-4.03-9.54-9.54 c-0.53-6.39-4.88-10.74-11.35-11.35c-5.46-0.46-9.02-4.03-9.54-9.54c-0.53-6.39-4.88-10.75-11.35-11.35 c-5.46-0.46-9.02-4.03-9.54-9.55c-0.05-0.54-0.53-0.95-1.08-0.89c-0.54,0.05-0.94,0.53-0.89,1.08c0.61,6.46,4.96,10.81,11.34,11.34 c5.53,0.52,9.1,4.09,9.55,9.55c0.61,6.46,4.96,10.81,11.34,11.34c5.53,0.52,9.1,4.09,9.55,9.55c0.61,6.46,4.96,10.81,11.35,11.34 c0.03,0,0.06,0,0.08,0C453.69,748.54,454.13,748.15,454.17,747.63z M88.77,152.29c0.39-0.39,0.39-1.01,0-1.4l-14.54-14.54 c-0.39-0.39-1.01-0.39-1.4,0c-0.39,0.39-0.39,1.01,0,1.4l14.54,14.54c0.19,0.19,0.45,0.29,0.7,0.29S88.57,152.48,88.77,152.29z M150.48,198.04c0-5.77-4.69-10.46-10.46-10.46s-10.46,4.69-10.46,10.46s4.69,10.46,10.46,10.46S150.48,203.8,150.48,198.04z M148.48,198.04c0,4.66-3.79,8.46-8.46,8.46c-4.66,0-8.46-3.79-8.46-8.46c0-4.67,3.79-8.46,8.46-8.46 C144.69,189.58,148.48,193.37,148.48,198.04z M109.95,475.48c0-3.24-2.63-5.87-5.87-5.87s-5.87,2.63-5.87,5.87s2.63,5.87,5.87,5.87 S109.95,478.72,109.95,475.48z M107.95,475.48c0,2.13-1.74,3.87-3.87,3.87s-3.87-1.74-3.87-3.87s1.74-3.87,3.87-3.87 S107.95,473.35,107.95,475.48z M471.68,70.33l8.12-8.12c0.6-0.6,0.6-1.51,0-2.12l-8.12-8.12c-0.6-0.6-1.52-0.6-2.12,0l-8.12,8.12 c-0.29,0.29-0.45,0.67-0.45,1.06s0.16,0.77,0.45,1.06l8.12,8.12c0.29,0.29,0.67,0.45,1.06,0.45S471.39,70.62,471.68,70.33z M470.62,53.74l7.41,7.41l-7.41,7.41l-7.41-7.41L470.62,53.74z M335.33,240.95l-0.71-0.71l-49.85,49.79l0.71,0.71L335.33,240.95z M328.31,233.92l-0.71-0.71L277.75,283l0.71,0.71L328.31,233.92z M335.33,240.95c1.03-1.03,1.6-2.41,1.6-3.87 c0-1.46-0.57-2.83-1.6-3.87c-1.03-1.03-2.4-1.6-3.87-1.6c-1.46,0-2.83,0.57-3.87,1.6c-1.03,1.03-1.6,2.4-1.6,3.87 c0,1.46,0.57,2.83,1.6,3.87c1.07,1.07,2.47,1.6,3.87,1.6C332.87,242.55,334.27,242.01,335.33,240.95z M334.63,233.92 c0.84,0.84,1.31,1.96,1.31,3.16c0,1.19-0.46,2.32-1.31,3.16c-1.74,1.74-4.58,1.74-6.32,0c-0.84-0.84-1.31-1.97-1.31-3.16 c0-1.19,0.46-2.32,1.31-3.16c0.84-0.84,1.96-1.31,3.16-1.31C332.66,232.62,333.78,233.08,334.63,233.92z M285.48,290.74l-0.71-0.71 c-0.84,0.84-1.96,1.31-3.16,1.31c-1.19,0-2.32-0.46-3.16-1.31c-0.84-0.84-1.31-1.96-1.31-3.16c0-1.19,0.46-2.32,1.31-3.16 l-0.71-0.71c-1.03,1.03-1.6,2.4-1.6,3.87c0,1.46,0.57,2.83,1.6,3.87c1.03,1.03,2.4,1.6,3.87,1.6 C283.08,292.34,284.45,291.77,285.48,290.74z M357.92,447.13l9.27-5.33l-9.27-5.36V447.13z M371.32,447.13l9.24-5.33l-9.24-5.36 V447.13z M384.68,447.13l9.24-5.33l-9.24-5.36V447.13z M398.05,447.13l9.27-5.33l-9.27-5.36V447.13z M411.44,447.13l9.24-5.33 l-9.24-5.36V447.13z M137.35,693.92c0.19-0.2,0.19-0.51,0-0.71l-6.35-6.28c-0.2-0.2-0.51-0.19-0.71,0c-0.19,0.2-0.19,0.51,0,0.71 l6.35,6.28c0.1,0.1,0.22,0.14,0.35,0.14C137.12,694.07,137.25,694.02,137.35,693.92z M161.63,707.97c0.2-0.2,0.2-0.51,0-0.71 l-24.14-24.14c-0.2-0.2-0.51-0.2-0.71,0s-0.2,0.51,0,0.71l24.14,24.14c0.1,0.1,0.23,0.15,0.35,0.15S161.53,708.07,161.63,707.97z M185.21,721.24c0.2-0.2,0.2-0.51,0-0.71l-41.16-41.16c-0.2-0.2-0.51-0.2-0.71,0s-0.2,0.51,0,0.71l41.16,41.16 c0.1,0.1,0.23,0.15,0.35,0.15S185.11,721.34,185.21,721.24z M185.21,711.01c0.2-0.2,0.2-0.51,0-0.71l-34.66-34.66 c-0.2-0.2-0.51-0.2-0.71,0s-0.2,0.51,0,0.71l34.66,34.66c0.1,0.1,0.23,0.15,0.35,0.15S185.11,711.1,185.21,711.01z M185.21,700.7 c0.19-0.2,0.19-0.51,0-0.71l-28.17-28.1c-0.2-0.2-0.51-0.2-0.71,0c-0.19,0.2-0.19,0.51,0,0.71l28.17,28.1 c0.1,0.1,0.23,0.15,0.35,0.15S185.11,700.8,185.21,700.7z M185.21,690.46c0.2-0.2,0.2-0.51,0-0.71l-21.67-21.67 c-0.2-0.2-0.51-0.2-0.71,0s-0.2,0.51,0,0.71l21.67,21.67c0.1,0.1,0.23,0.15,0.35,0.15S185.11,690.56,185.21,690.46z M185.21,680.16 c0.2-0.2,0.2-0.51,0-0.71l-15.11-15.11c-0.2-0.2-0.51-0.2-0.71,0s-0.2,0.51,0,0.71l15.11,15.11c0.1,0.1,0.23,0.15,0.35,0.15 S185.11,680.25,185.21,680.16z M185.21,669.92c0.2-0.2,0.2-0.51,0-0.71l-8.61-8.61c-0.2-0.2-0.51-0.2-0.71,0s-0.2,0.51,0,0.71 l8.61,8.61c0.1,0.1,0.23,0.15,0.35,0.15S185.11,670.02,185.21,669.92z M185.21,659.61c0.19-0.2,0.19-0.52-0.01-0.71l-2.12-2.05 c-0.2-0.19-0.51-0.19-0.71,0.01c-0.19,0.2-0.19,0.52,0.01,0.71l2.12,2.05c0.1,0.09,0.22,0.14,0.35,0.14 C184.99,659.76,185.12,659.71,185.21,659.61z"></path> </svg> 