<?xml version="1.0" encoding="UTF-8"?> <!-- Generator: Adobe Illustrator 23.0.1, SVG Export Plug-In . SVG Version: 6.00 Build 0) --> <svg xmlns="http://www.w3.org/2000/svg" xmlns:xlink="http://www.w3.org/1999/xlink" id="Layer_1" x="0px" y="0px" viewBox="0 0 500 500" style="enable-background:new 0 0 500 500;" xml:space="preserve"> <style type="text/css"> .st0{enable-background:new ;} .st1{fill:url(#SVGID_1_);} .st2{fill:url(#SVGID_2_);} .st3{fill:url(#SVGID_3_);} .st4{fill:url(#SVGID_4_);} .st5{fill:url(#SVGID_5_);} </style> <g> <g class="st0"> <g> <linearGradient id="SVGID_1_" gradientUnits="userSpaceOnUse" x1="-202.4243" y1="-111.9823" x2="146.7941" y2="237.2361"> <stop offset="0" style="stop-color:#FFFFFF"></stop> <stop offset="0.2815" style="stop-color:#F8EAFE"></stop> <stop offset="0.7384" style="stop-color:#EFCDFD"></stop> <stop offset="1" style="stop-color:#EBC2FC"></stop> </linearGradient> <polygon class="st1" points="94.8,181.2 230.5,140.7 233.7,328.2 98,368.7 "></polygon> </g> <g> <linearGradient id="SVGID_2_" gradientUnits="userSpaceOnUse" x1="98.0464" y1="352.5714" x2="404.3612" y2="352.5714"> <stop offset="0" style="stop-color:#FFFFFF"></stop> <stop offset="0.2815" style="stop-color:#F8EAFE"></stop> <stop offset="0.7384" style="stop-color:#EFCDFD"></stop> <stop offset="1" style="stop-color:#EBC2FC"></stop> </linearGradient> <polygon class="st2" points="98,368.7 233.7,328.2 404.4,336.4 268.7,376.9 "></polygon> </g> <g> <linearGradient id="SVGID_3_" gradientUnits="userSpaceOnUse" x1="-45.4878" y1="51.8142" x2="535.4618" y2="632.7638"> <stop offset="0" style="stop-color:#FFFFFF"></stop> <stop offset="0.2815" style="stop-color:#F8EAFE"></stop> <stop offset="0.7384" style="stop-color:#EFCDFD"></stop> <stop offset="1" style="stop-color:#EBC2FC"></stop> </linearGradient> <path class="st3" d="M37.2,116.4L320.9,130l5.4,311.8L42.6,428.1L37.2,116.4z M268.7,376.9l-3.2-187.5l-170.6-8.2L98,368.7 L268.7,376.9"></path> </g> <g> <linearGradient id="SVGID_4_" gradientUnits="userSpaceOnUse" x1="142.3566" y1="102.9287" x2="788.8955" y2="102.9287"> <stop offset="0" style="stop-color:#FFFFFF"></stop> <stop offset="0.2815" style="stop-color:#F8EAFE"></stop> <stop offset="0.7384" style="stop-color:#EFCDFD"></stop> <stop offset="1" style="stop-color:#EBC2FC"></stop> </linearGradient> <polygon class="st4" points="37.2,116.4 172.9,75.9 456.6,89.5 320.9,130 "></polygon> </g> <linearGradient id="SVGID_5_" gradientUnits="userSpaceOnUse" x1="97.8571" y1="-27.989" x2="408.9837" y2="283.1376"> <stop offset="0" style="stop-color:#FFFFFF"></stop> <stop offset="0.2815" style="stop-color:#F8EAFE"></stop> <stop offset="0.7384" style="stop-color:#EFCDFD"></stop> <stop offset="1" style="stop-color:#EBC2FC"></stop> </linearGradient> <polygon class="st5" points="456.6,89.5 320.9,130 326.3,441.7 462,401.2 "></polygon> </g> </g> </svg> 